<svg width="40" height="40" viewBox="0 0 100 100" fill="none" xmlns="http://www.w3.org/2000/svg">
<g clip-path="url(#clip0_1_2)">
<path d="M50 0C22.3858 0 0 22.3858 0 50C0 77.6142 22.3858 100 50 100C77.6142 100 100 77.6142 100 50C100 22.3858 77.6142 0 50 0Z" fill="#FACC15"/>
<path d="M50 12.5C29.3249 12.5 12.5 29.3249 12.5 50C12.5 70.6751 29.3249 87.5 50 87.5C70.6751 87.5 87.5 70.6751 87.5 50C87.5 29.3249 70.6751 12.5 50 12.5Z" fill="#1E293B"/>
<path d="M50 15C30.67 15 15 30.67 15 50C15 69.33 30.67 85 50 85C69.33 85 85 69.33 85 50C85 30.67 69.33 15 50 15ZM50 20C66.5685 20 80 33.4315 80 50C80 66.5685 66.5685 80 50 80C33.4315 80 20 66.5685 20 50C20 33.4315 33.4315 20 50 20Z" fill="#FACC15"/>
<path d="M40 35H60L52.5 65H47.5L40 35Z" fill="#FACC15"/>
<path d="M50 25L52.5 30H47.5L50 25Z" fill="#FACC15"/>
<path d="M40 70H60V75H40V70Z" fill="#FACC15"/>
</g>
<defs>
<clipPath id="clip0_1_2">
<rect width="100" height="100" fill="white"/>
</clipPath>
</defs>
</svg>
